<svg id="Layer_2" data-name="Layer 2" xmlns="http://www.w3.org/2000/svg" viewBox="0 0 109.74 24.09"><path d="M21.91,32.5a.75.75,0,0,1-.27.59,1,1,0,0,1-.64.22,1,1,0,0,1-.86-.48l-3.22-5.08a3.88,3.88,0,0,0-1.3-1.36A3.71,3.71,0,0,0,13.8,26h-3v6.26a1,1,0,0,1-.27.73.89.89,0,0,1-.69.28A.91.91,0,0,1,9.1,33a1,1,0,0,1-.27-.73V17.21a.91.91,0,0,1,.28-.7,1,1,0,0,1,.73-.26h5.95A6.39,6.39,0,0,1,20,17.47a4.45,4.45,0,0,1,1.46,3.6,4.47,4.47,0,0,1-1.17,3.24A5.23,5.23,0,0,1,17,25.8a3.07,3.07,0,0,1,1.08.62,5.55,5.55,0,0,1,1,1.21l2.73,4.31A1,1,0,0,1,21.91,32.5Zm-6.29-8.12a4.49,4.49,0,0,0,2.94-.81,3,3,0,0,0,1-2.47,3,3,0,0,0-1-2.43,4.65,4.65,0,0,0-3-.79H10.78v6.5Z" transform="translate(-8.83 -13.52)" style="fill:#c77778"/><path d="M34.51,30.67a.8.8,0,0,1,.19.55c0,.41-.28.77-.84,1.11a7.09,7.09,0,0,1-1.82.76,7.7,7.7,0,0,1-1.87.25,5.74,5.74,0,0,1-4.29-1.61,6.11,6.11,0,0,1-1.57-4.44,6.89,6.89,0,0,1,.7-3.18A5.15,5.15,0,0,1,27,22a5.43,5.43,0,0,1,2.87-.77,4.67,4.67,0,0,1,3.63,1.49,5.82,5.82,0,0,1,1.34,4,1,1,0,0,1-.19.7.83.83,0,0,1-.63.22H26.26q.21,4.13,3.91,4.12a4.58,4.58,0,0,0,1.61-.25,12.92,12.92,0,0,0,1.44-.68,2.21,2.21,0,0,1,.84-.36A.6.6,0,0,1,34.51,30.67Zm-7.11-7a4.38,4.38,0,0,0-1.1,2.71h6.8a4.22,4.22,0,0,0-.89-2.73,3,3,0,0,0-2.35-.94A3.24,3.24,0,0,0,27.4,23.67Z" transform="translate(-8.83 -13.52)" style="fill:#c77778"/><path d="M39.59,32.59a5,5,0,0,1-2-2.11A7.08,7.08,0,0,1,37,27.31a7,7,0,0,1,.71-3.19,5.18,5.18,0,0,1,2-2.16,5.57,5.57,0,0,1,2.93-.77,7.05,7.05,0,0,1,1.81.25,5.06,5.06,0,0,1,1.57.74,2.11,2.11,0,0,1,.61.56,1.09,1.09,0,0,1,.18.61.81.81,0,0,1-.18.55.56.56,0,0,1-.47.22.76.76,0,0,1-.36-.1,1.93,1.93,0,0,1-.32-.19l-.18-.12a7.92,7.92,0,0,0-1.19-.65,3.67,3.67,0,0,0-1.38-.24A3.32,3.32,0,0,0,40,24a5.07,5.07,0,0,0-1,3.3,4.93,4.93,0,0,0,1,3.27,3.38,3.38,0,0,0,2.72,1.15,3.75,3.75,0,0,0,1.41-.24,6.62,6.62,0,0,0,1.18-.65c.18-.11.35-.21.51-.29a.93.93,0,0,1,.41-.12.57.57,0,0,1,.44.22.83.83,0,0,1,.18.55,1,1,0,0,1-.17.56,2.35,2.35,0,0,1-.62.57,5.76,5.76,0,0,1-1.62.73,7,7,0,0,1-1.91.28A5.53,5.53,0,0,1,39.59,32.59Z" transform="translate(-8.83 -13.52)" style="fill:#c77778"/><path d="M49.2,18.38a1.13,1.13,0,0,1-.36-.88,1.15,1.15,0,0,1,.36-.87,1.49,1.49,0,0,1,1.87,0,1.15,1.15,0,0,1,.36.87,1.13,1.13,0,0,1-.36.88,1.46,1.46,0,0,1-1.87,0ZM49.43,33a.91.91,0,0,1-.28-.71V22.2a.91.91,0,0,1,.28-.71,1,1,0,0,1,.71-.25,1,1,0,0,1,.69.25.93.93,0,0,1,.27.71V32.33a.91.91,0,0,1-.27.72,1,1,0,0,1-.69.24A1,1,0,0,1,49.43,33Z" transform="translate(-8.83 -13.52)" style="fill:#c77778"/><path d="M63.31,22a5.09,5.09,0,0,1,1.83,2.15,7.49,7.49,0,0,1,.64,3.2,7.31,7.31,0,0,1-.64,3.18,4.83,4.83,0,0,1-4.54,2.85,4.64,4.64,0,0,1-2.39-.6A3.9,3.9,0,0,1,56.66,31v5.64a.93.93,0,0,1-.25.69,1,1,0,0,1-.71.25,1,1,0,0,1-.72-.27.92.92,0,0,1-.26-.67V22.2a.94.94,0,0,1,.26-.69,1,1,0,0,1,.72-.27.92.92,0,0,1,.71.27.93.93,0,0,1,.25.69v1.3a3.9,3.9,0,0,1,1.55-1.71,4.64,4.64,0,0,1,2.39-.6A4.86,4.86,0,0,1,63.31,22Zm-.45,8.62a5.09,5.09,0,0,0,.93-3.27,5.24,5.24,0,0,0-.93-3.3,3.54,3.54,0,0,0-5.27,0,5.1,5.1,0,0,0-.93,3.28,5.15,5.15,0,0,0,.93,3.3,3.14,3.14,0,0,0,2.63,1.17A3.25,3.25,0,0,0,62.86,30.58Z" transform="translate(-8.83 -13.52)" style="fill:#c77778"/><path d="M78.19,30.67a.8.8,0,0,1,.19.55c0,.41-.28.77-.84,1.11a7.09,7.09,0,0,1-1.82.76,7.76,7.76,0,0,1-1.87.25,5.74,5.74,0,0,1-4.29-1.61A6.06,6.06,0,0,1,68,27.29a6.89,6.89,0,0,1,.7-3.18,5.15,5.15,0,0,1,2-2.15,5.43,5.43,0,0,1,2.87-.77,4.67,4.67,0,0,1,3.63,1.49,5.82,5.82,0,0,1,1.34,4,1.1,1.1,0,0,1-.19.7.83.83,0,0,1-.63.22H69.93c.15,2.75,1.45,4.12,3.92,4.12a4.48,4.48,0,0,0,1.6-.25,11.43,11.43,0,0,0,1.44-.68,2.29,2.29,0,0,1,.85-.36A.6.6,0,0,1,78.19,30.67Zm-7.12-7A4.37,4.37,0,0,0,70,26.38h6.8a4.22,4.22,0,0,0-.89-2.73,3,3,0,0,0-2.36-.94A3.27,3.27,0,0,0,71.07,23.67Z" transform="translate(-8.83 -13.52)" style="fill:#c77778"/><path d="M83.17,33.07a6.22,6.22,0,0,1-1.76-.74,2.31,2.31,0,0,1-.62-.54,1.09,1.09,0,0,1-.17-.61.81.81,0,0,1,.17-.52.62.62,0,0,1,.47-.2,1.81,1.81,0,0,1,.84.36,8.8,8.8,0,0,0,1.43.68,5.25,5.25,0,0,0,1.76.25,3.8,3.8,0,0,0,2-.45A1.48,1.48,0,0,0,88,30a1.33,1.33,0,0,0-.26-.85,2.18,2.18,0,0,0-.92-.58A13,13,0,0,0,85,28a7.13,7.13,0,0,1-3-1.22A2.61,2.61,0,0,1,81,24.72a3,3,0,0,1,.58-1.82,3.76,3.76,0,0,1,1.6-1.25,5.63,5.63,0,0,1,2.31-.46,6.76,6.76,0,0,1,1.81.25,5.52,5.52,0,0,1,1.55.71,1.6,1.6,0,0,1,.82,1.2.76.76,0,0,1-.2.53.59.59,0,0,1-.45.22,1.81,1.81,0,0,1-.86-.41A7.56,7.56,0,0,0,86.9,23a4,4,0,0,0-1.49-.24,3,3,0,0,0-1.81.5,1.6,1.6,0,0,0-.68,1.35,1.34,1.34,0,0,0,.25.85,2.19,2.19,0,0,0,.84.57,10.55,10.55,0,0,0,1.69.5,12,12,0,0,1,2.54.79A2.58,2.58,0,0,1,89.9,30a2.86,2.86,0,0,1-1.27,2.43,5.57,5.57,0,0,1-3.36.93A8,8,0,0,1,83.17,33.07Z" transform="translate(-8.83 -13.52)" style="fill:#c77778"/><path d="M109.85,13.52c-4.63,0-5.49,4.09-9,6.39-4.36,2.86-5.53,6.17-4.35,9.78,1.53,4.66,5.83,7.89,10.8,5.32s6.86-7.16,9.42-9.56C119.86,22.51,119.49,13.52,109.85,13.52Z" transform="translate(-8.83 -13.52)" style="fill:#be906b"/><path d="M117.6,17.3c.26,1.52.3,4.37-.66,5.8-.42.62-1.14,1.53-1.54,2a5.21,5.21,0,0,0,.52-3.62c-1.15,5.36-4.5,5.69-6.68,9.8a17,17,0,0,0,3.22-2.49s-1.75,4.3-6,4.84c-3.91.51-4.13,1.74-5.2,1.73,1.6,1.05,4,.67,6-.39,5-2.56,6.86-7.16,9.42-9.56A6.77,6.77,0,0,0,117.6,17.3Z" transform="translate(-8.83 -13.52)" style="fill:#806047"/><path d="M105.62,32c.09.54-.56,1.1-1.47,1.26s-1.71-.14-1.8-.68.79.21,1.69.05S105.52,31.42,105.62,32Z" transform="translate(-8.83 -13.52)" style="fill:#cb9971"/><path d="M100.11,31.77c-.4.32-1.13-.12-1.64-1s-.58-1.79-.17-2.11.15.89.65,1.74S100.51,31.46,100.11,31.77Z" transform="translate(-8.83 -13.52)" style="fill:#cb9971"/><path d="M98.59,26.86c-.49,0-.87-.81-.85-1.83s.44-1.84.93-1.85-.32.83-.35,1.85S99.08,26.86,98.59,26.86Z" transform="translate(-8.83 -13.52)" style="fill:#cb9971"/><path d="M109.35,28.81c.07.56-.63,1.11-1.56,1.23s-1.76-.24-1.84-.8.81.25,1.75.13S109.27,28.25,109.35,28.81Z" transform="translate(-8.83 -13.52)" style="fill:#cb9971"/><path d="M112.89,17.78c.5,0,.8.85.69,1.86s-.61,1.81-1.11,1.79.41-.81.52-1.81S112.4,17.76,112.89,17.78Z" transform="translate(-8.83 -13.52)" style="fill:#cb9971"/><path d="M106,16.82c-.24-.28,0-.88.65-1.33s1.3-.6,1.54-.32-.64.2-1.25.65S106.27,17.11,106,16.82Z" transform="translate(-8.83 -13.52)" style="fill:#cb9971"/><path d="M102.22,20.93c-.22-.48.41-1.18,1.4-1.55s2-.31,2.2.17-.95,0-1.94.39S102.44,21.4,102.22,20.93Z" transform="translate(-8.83 -13.52)" style="fill:#cb9971"/><path d="M105.17,25.45c.43.58,0,1.74-1.06,2.57s-2.18,1-2.6.44,1.08-.31,2.1-1.14S104.75,24.86,105.17,25.45Z" transform="translate(-8.83 -13.52)" style="fill:#cb9971"/><path d="M111.28,14.77c.48.46.22,1.58-.56,2.49s-1.8,1.27-2.27.81.93-.45,1.71-1.36S110.81,14.3,111.28,14.77Z" transform="translate(-8.83 -13.52)" style="fill:#cb9971"/><path d="M112,23.8c.38.49,0,1.49-.84,2.23s-1.82.94-2.2.45.92-.29,1.76-1S111.59,23.31,112,23.8Z" transform="translate(-8.83 -13.52)" style="fill:#cb9971"/><path d="M103.68,23.1c.07.53-.63,1.1-1.56,1.29s-1.75-.09-1.82-.61.8.18,1.74,0S103.61,22.58,103.68,23.1Z" transform="translate(-8.83 -13.52)" style="fill:#cb9971"/><path d="M116.08,17.51c.49.21.61,1.11.28,2s-1,1.44-1.48,1.23.57-.59.9-1.49S115.6,17.29,116.08,17.51Z" transform="translate(-8.83 -13.52)" style="fill:#cb9971"/><path d="M109.66,21.4c.11.56-.7,1.29-1.81,1.64s-2.1.2-2.21-.35,1,.06,2.08-.3S109.55,20.85,109.66,21.4Z" transform="translate(-8.83 -13.52)" style="fill:#cb9971"/></svg>