<svg id="Layer_2" data-name="Layer 2" xmlns="http://www.w3.org/2000/svg" viewBox="0 0 22.5 22.5"><path d="M109.85,13.52c-4.63,0-5.49,4.09-9,6.39-4.36,2.86-5.53,6.17-4.35,9.78,1.53,4.66,5.83,7.89,10.8,5.32s6.86-7.16,9.42-9.56C119.86,22.51,119.49,13.52,109.85,13.52Z" transform="translate(-96.07 -13.52)" style="fill:#be906b"/><path d="M117.6,17.3c.26,1.52.3,4.37-.66,5.8-.42.62-1.14,1.53-1.54,2a5.21,5.21,0,0,0,.52-3.62c-1.15,5.36-4.5,5.69-6.68,9.8a17,17,0,0,0,3.22-2.49s-1.75,4.3-6,4.84c-3.91.51-4.13,1.74-5.2,1.73,1.6,1.05,4,.67,6-.39,5-2.56,6.86-7.16,9.42-9.56A6.77,6.77,0,0,0,117.6,17.3Z" transform="translate(-96.07 -13.52)" style="fill:#806047"/><path d="M105.62,32c.09.54-.56,1.1-1.47,1.26s-1.71-.14-1.8-.68.79.21,1.69.05S105.52,31.42,105.62,32Z" transform="translate(-96.07 -13.52)" style="fill:#cb9971"/><path d="M100.11,31.77c-.4.32-1.13-.12-1.64-1s-.58-1.79-.17-2.11.15.89.65,1.74S100.51,31.46,100.11,31.77Z" transform="translate(-96.07 -13.52)" style="fill:#cb9971"/><path d="M98.59,26.86c-.49,0-.87-.81-.85-1.83s.44-1.84.93-1.85-.32.83-.35,1.85S99.08,26.86,98.59,26.86Z" transform="translate(-96.07 -13.52)" style="fill:#cb9971"/><path d="M109.35,28.81c.07.56-.63,1.11-1.56,1.23s-1.76-.24-1.84-.8.81.25,1.75.13S109.27,28.25,109.35,28.81Z" transform="translate(-96.07 -13.52)" style="fill:#cb9971"/><path d="M112.89,17.78c.5,0,.8.85.69,1.86s-.61,1.81-1.11,1.79.41-.81.52-1.81S112.4,17.76,112.89,17.78Z" transform="translate(-96.07 -13.52)" style="fill:#cb9971"/><path d="M106,16.82c-.24-.28,0-.88.65-1.33s1.3-.6,1.54-.32-.64.2-1.25.65S106.27,17.11,106,16.82Z" transform="translate(-96.07 -13.52)" style="fill:#cb9971"/><path d="M102.22,20.93c-.22-.48.41-1.18,1.4-1.55s2-.31,2.2.17-.95,0-1.94.39S102.44,21.4,102.22,20.93Z" transform="translate(-96.07 -13.52)" style="fill:#cb9971"/><path d="M105.17,25.45c.43.58,0,1.74-1.06,2.57s-2.18,1-2.6.44,1.08-.31,2.1-1.14S104.75,24.86,105.17,25.45Z" transform="translate(-96.07 -13.52)" style="fill:#cb9971"/><path d="M111.28,14.77c.48.46.22,1.58-.56,2.49s-1.8,1.27-2.27.81.93-.45,1.71-1.36S110.81,14.3,111.28,14.77Z" transform="translate(-96.07 -13.52)" style="fill:#cb9971"/><path d="M112,23.8c.38.49,0,1.49-.84,2.23s-1.82.94-2.2.45.92-.29,1.76-1S111.59,23.31,112,23.8Z" transform="translate(-96.07 -13.52)" style="fill:#cb9971"/><path d="M103.68,23.1c.07.53-.63,1.1-1.56,1.29s-1.75-.09-1.82-.61.8.18,1.74,0S103.61,22.58,103.68,23.1Z" transform="translate(-96.07 -13.52)" style="fill:#cb9971"/><path d="M116.08,17.51c.49.21.61,1.11.28,2s-1,1.44-1.48,1.23.57-.59.9-1.49S115.6,17.29,116.08,17.51Z" transform="translate(-96.07 -13.52)" style="fill:#cb9971"/><path d="M109.66,21.4c.11.56-.7,1.29-1.81,1.64s-2.1.2-2.21-.35,1,.06,2.08-.3S109.55,20.85,109.66,21.4Z" transform="translate(-96.07 -13.52)" style="fill:#cb9971"/></svg>